<?xml version="1.0" encoding="utf-8"?>
<!-- Generator: Adobe Illustrator 19.2.1, SVG Export Plug-In . SVG Version: 6.00 Build 0)  -->
<svg version="1.1" xmlns="http://www.w3.org/2000/svg" xmlns:xlink="http://www.w3.org/1999/xlink" x="0px" y="0px"
	 viewBox="0 0 96.9 73.2" style="enable-background:new 0 0 96.9 73.2;" xml:space="preserve">
<style type="text/css">
	.st0{display:none;}
	.st1{display:inline;fill:#FFFFFF;}
	.st2{fill:#FFFFFF;}
</style>
<g id="レイヤー_1" class="st0">
	<path class="st1" d="M22.1,62v9.1h5.5v2.1h-7.9V62H22.1z M31.9,62v11.2h-2.5V62H31.9z M36.7,70.4c0.1,0.3,0.3,0.5,0.5,0.6
		s0.5,0.3,0.8,0.4s0.6,0.1,0.9,0.1c0.2,0,0.5,0,0.7-0.1c0.3,0,0.5-0.1,0.7-0.2s0.4-0.2,0.5-0.4c0.1-0.2,0.2-0.4,0.2-0.7
		c0-0.3-0.1-0.5-0.3-0.7s-0.4-0.3-0.8-0.5c-0.3-0.1-0.7-0.2-1.1-0.3c-0.4-0.1-0.8-0.2-1.2-0.3c-0.4-0.1-0.8-0.2-1.2-0.4
		s-0.8-0.3-1.1-0.6c-0.3-0.2-0.6-0.5-0.8-0.9s-0.3-0.8-0.3-1.3c0-0.6,0.1-1.1,0.4-1.5c0.2-0.4,0.6-0.8,1-1.1s0.8-0.5,1.3-0.6
		s1-0.2,1.5-0.2c0.6,0,1.1,0.1,1.7,0.2c0.5,0.1,1,0.3,1.4,0.6s0.8,0.7,1,1.1c0.2,0.5,0.4,1,0.4,1.7h-2.4c0-0.3-0.1-0.6-0.2-0.8
		c-0.1-0.2-0.3-0.4-0.5-0.5c-0.2-0.1-0.4-0.2-0.7-0.3s-0.5-0.1-0.8-0.1c-0.2,0-0.4,0-0.6,0.1c-0.2,0-0.4,0.1-0.5,0.2
		c-0.2,0.1-0.3,0.2-0.4,0.4c-0.1,0.2-0.2,0.4-0.2,0.6s0,0.4,0.1,0.5s0.2,0.3,0.5,0.4c0.2,0.1,0.6,0.2,1,0.3c0.4,0.1,1,0.3,1.7,0.4
		c0.2,0,0.5,0.1,0.9,0.2s0.7,0.3,1.1,0.5c0.4,0.2,0.7,0.6,0.9,1c0.3,0.4,0.4,0.9,0.4,1.5c0,0.5-0.1,1-0.3,1.4s-0.5,0.8-0.9,1.1
		c-0.4,0.3-0.9,0.6-1.5,0.7c-0.6,0.2-1.3,0.3-2,0.3c-0.6,0-1.2-0.1-1.8-0.2c-0.6-0.2-1.1-0.4-1.5-0.7c-0.4-0.3-0.8-0.7-1.1-1.2
		s-0.4-1.1-0.4-1.8h2.4C36.5,69.8,36.6,70.2,36.7,70.4z M44.8,64.1V62H54v2.1h-3.4v9.1h-2.5v-9.1H44.8z M64.2,62v2.1h-5.9v2.4h5.4
		v1.9h-5.4v2.7h6v2.1h-8.5V62H64.2z M69.2,62l4.7,7.5l0,0V62h2.3v11.2h-2.5L69,65.7l0,0v7.5h-2.3V62H69.2z M11.7,16.7
		c-0.2,0-0.3,0-0.4-0.2l-7.2-5.9C3.8,10.5,3.8,10,4,9.8c0.2-0.3,0.7-0.3,1-0.1l7.2,5.9c0.3,0.2,0.3,0.7,0.1,1
		C12.1,16.6,11.9,16.7,11.7,16.7z M8.2,43.4l5.9-7.2c0.2-0.3,0.2-0.7-0.1-1c-0.3-0.2-0.7-0.2-1,0.1l-5.9,7.2c-0.2,0.3-0.2,0.7,0.1,1
		c0.1,0.1,0.3,0.2,0.4,0.2C7.9,43.6,8.1,43.5,8.2,43.4z M11.5,26.9c0-0.4-0.3-0.7-0.7-0.7H0.7c-0.4,0-0.7,0.3-0.7,0.7
		s0.3,0.7,0.7,0.7h10.2C11.2,27.6,11.5,27.3,11.5,26.9z M85.2,16.7c-0.2,0-0.4-0.1-0.5-0.3c-0.2-0.3-0.2-0.7,0.1-1L92,9.7
		c0.3-0.2,0.7-0.2,1,0.1c0.2,0.3,0.2,0.7-0.1,1l-7.2,5.9C85.5,16.7,85.3,16.7,85.2,16.7z M89.6,43.5c0.3-0.2,0.3-0.7,0.1-1l-5.9-7.2
		c-0.2-0.3-0.7-0.3-1-0.1c-0.3,0.2-0.3,0.7-0.1,1l5.9,7.2c0.1,0.2,0.3,0.3,0.5,0.3C89.4,43.6,89.5,43.6,89.6,43.5z M96.9,26.9
		c0-0.4-0.3-0.7-0.7-0.7H86.1c-0.4,0-0.7,0.3-0.7,0.7s0.3,0.7,0.7,0.7h10.2C96.6,27.6,96.9,27.3,96.9,26.9z M77.5,16.5
		c-2.1-0.4-4.4,1.2-6,4C69.6,8.9,59.6,0,47.4,0C35.7,0,25.9,8.2,23.5,19.2c-1.5-2-3.3-3.1-5.1-2.7c-3.2,0.6-4.8,5.6-3.7,11.1
		c1.1,5.5,4.6,9.5,7.8,8.8c1.1-0.2,2-1,2.7-2.1c3.8,8.5,12.3,14.4,22.2,14.4c10.4,0,19.2-6.5,22.8-15.6c0.7,1.8,1.8,3,3.3,3.3
		c3.2,0.6,6.6-3.3,7.8-8.8C82.3,22.2,80.6,17.2,77.5,16.5z M38.2,24.4c-0.8,0-1.5-1.3-1.5-3c0-1.6,0.7-3,1.5-3c0.8,0,1.5,1.3,1.5,3
		C39.7,23.1,39,24.4,38.2,24.4z M57.7,24.4c-0.8,0-1.5-1.3-1.5-3c0-1.6,0.7-3,1.5-3s1.5,1.3,1.5,3C59.3,23.1,58.6,24.4,57.7,24.4z"
		/>
</g>
<g id="レイヤー_2">
	<path class="st2" d="M27.1,64.2v-2.1h9.2v2.1h-3.4v9.1h-2.5v-9.1H27.1z M42.6,62.1l4.2,11.2h-2.6l-0.8-2.5h-4.2l-0.9,2.5h-2.5
		l4.3-11.2H42.6z M42.8,69l-1.4-4.1l0,0L39.9,69H42.8z M51,62.1v9.1h5.5v2.1h-7.9V62.1H51z M60.8,62.1v4.6l4.4-4.6h3.1l-4.4,4.4
		l4.8,6.8h-3.1l-3.4-5l-1.4,1.4v3.6h-2.5V62.1H60.8z M73.3,16.7c-0.6-0.1-1.2,0-1.7,0.1C68.3,7.1,59.3,0.1,48.5,0
		C37.7-0.1,28.6,6.8,25.3,16.5c-0.5-0.1-1-0.2-1.5-0.1c-3.2,0.6-4.9,5.6-3.8,11.1c1,5.2,4.1,9,7.1,8.9c4.2,7.4,12,12.4,21.1,12.4
		c9.1,0.1,17-4.9,21.3-12.2c3.1,0.3,6.3-3.5,7.4-8.8C78.1,22.3,76.4,17.3,73.3,16.7z M58.3,18.6c0.8,0,1.5,1.3,1.5,3s-0.7,3-1.6,3
		c-0.8,0-1.5-1.3-1.5-3S57.4,18.6,58.3,18.6z M38.7,18.5c0.8,0,1.5,1.3,1.5,3c0,1.6-0.7,3-1.6,3c-0.8,0-1.5-1.3-1.5-3
		C37.2,19.8,37.9,18.4,38.7,18.5z M48.4,41.2c-7.4,0-13.7-4.6-16.4-11l33,0.2C62.1,36.8,55.8,41.2,48.4,41.2z"/>
</g>
</svg>
